<?xml version="1.0" encoding="utf-8"?>
<!-- Generator: Adobe Illustrator 26.0.1, SVG Export Plug-In . SVG Version: 6.00 Build 0)  -->
<svg version="1.1" id="Layer_1" xmlns="http://www.w3.org/2000/svg" xmlns:xlink="http://www.w3.org/1999/xlink" x="0px" y="0px"
	 viewBox="0 0 193.88 229.91" style="enable-background:new 0 0 193.88 229.91;" xml:space="preserve">
<style type="text/css">
	.st0{fill:#231F20;stroke:#FFFFFF;stroke-miterlimit:10;}
	.st1{fill:url(#SVGID_1_);}
	.st2{fill:url(#SVGID_00000046306706840446035930000004626374025750622848_);}
	.st3{fill:url(#SVGID_00000052801529551621333560000000318192574572947088_);}
	.st4{fill:url(#SVGID_00000083057587439508793410000010911297411032085433_);}
	.st5{fill:#C9BC8C;}
</style>
<rect width="193.88" height="229.91"/>
<rect x="-839.14" y="1.4" class="st0" width="553.68" height="375.84"/>
<linearGradient id="SVGID_1_" gradientUnits="userSpaceOnUse" x1="98.1645" y1="97.7311" x2="97.5938" y2="-86.1604">
	<stop  offset="0" style="stop-color:#EBDDA3"/>
	<stop  offset="1.137168e-03" style="stop-color:#E9DBA2"/>
	<stop  offset="0.0274" style="stop-color:#C3B285"/>
	<stop  offset="0.0543" style="stop-color:#A4916D"/>
	<stop  offset="0.0816" style="stop-color:#8C765B"/>
	<stop  offset="0.1097" style="stop-color:#7B644D"/>
	<stop  offset="0.1387" style="stop-color:#705946"/>
	<stop  offset="0.1704" style="stop-color:#6D5543"/>
	<stop  offset="0.3452" style="stop-color:#1F1417"/>
</linearGradient>
<path class="st1" d="M6.47,177.46C37.19,124.39,67.72,71.63,98.42,18.61c30.7,53.04,61.23,105.8,91.94,158.85
	C128.99,177.46,67.94,177.46,6.47,177.46z M184.57,174.16C155.75,124.38,127.17,75,98.41,25.32
	c-28.78,49.72-57.37,99.12-86.15,148.84C69.89,174.16,126.94,174.16,184.57,174.16z"/>
<g>
	
		<linearGradient id="SVGID_00000140700530571378530570000004563737403744083355_" gradientUnits="userSpaceOnUse" x1="113.3376" y1="204.0449" x2="113.8079" y2="219.8672">
		<stop  offset="0" style="stop-color:#EBDDA3"/>
		<stop  offset="0.2963" style="stop-color:#A08C6A"/>
		<stop  offset="0.5112" style="stop-color:#6D5543"/>
		<stop  offset="0.6169" style="stop-color:#624C3D"/>
		<stop  offset="0.8023" style="stop-color:#45342C"/>
		<stop  offset="1" style="stop-color:#1F1417"/>
	</linearGradient>
	<path style="fill:url(#SVGID_00000140700530571378530570000004563737403744083355_);" d="M105.46,189.59c5.23,0,10.39,0,15.76,0
		c0,1.56,0,3.13,0,5.06c-3.43,0-6.93,0-10.59,0c0,2.63,0,4.9,0,7.35c2.76,0,5.38,0,8.16,0c0,1.75,0,3.32,0,5.13
		c-2.72,0-5.33,0-8.13,0c0,2.34,0,4.44,0,6.81c3.58,0,7.03,0,10.62,0c0,1.77,0,3.29,0,5.03c-5.19,0-10.41,0-15.83,0
		C105.46,209.26,105.46,199.5,105.46,189.59z"/>
	
		<linearGradient id="SVGID_00000082357355657390018980000007972551280745081999_" gradientUnits="userSpaceOnUse" x1="83.8427" y1="204.3662" x2="83.6976" y2="222.0308">
		<stop  offset="0" style="stop-color:#EBDDA3"/>
		<stop  offset="0.2963" style="stop-color:#A08C6A"/>
		<stop  offset="0.5112" style="stop-color:#6D5543"/>
		<stop  offset="0.6169" style="stop-color:#624C3D"/>
		<stop  offset="0.8023" style="stop-color:#45342C"/>
		<stop  offset="1" style="stop-color:#1F1417"/>
	</linearGradient>
	<path style="fill:url(#SVGID_00000082357355657390018980000007972551280745081999_);" d="M80.29,189.67
		c0.18,2.33,0.04,4.55,0.59,6.58c0.64,2.35,1.88,4.54,3.03,7.21c2.45-4.48,4.44-8.63,3.54-13.73c1.84,0,3.4,0,5.19,0
		c0.01,3.35,0.61,6.62-0.98,9.79c-1,2-1.41,4.41-2.75,6.11c-2.76,3.48-2.25,7.39-2.29,11.29c-0.01,0.61-0.06,1.22-0.1,2.02
		c-1.64,0-3.21,0-5.13,0c0-2.54,0-5.06,0-7.58c0-1.28-0.63-2.24-1.17-3.38c-2.62-5.52-6.03-10.93-4.9-17.52
		c0.04-0.22,0.15-0.42,0.27-0.77C77.09,189.67,78.6,189.67,80.29,189.67z"/>
</g>
<path d="M184.57,174.16c-57.62,0-114.68,0-172.3,0c28.78-49.72,57.38-99.13,86.15-148.84C127.17,75,155.75,124.38,184.57,174.16z
	 M80.78,119.03c0.06,0.33,0.12,0.67,0.18,1c-0.95,0.67-1.84,1.78-2.87,1.93c-5.06,0.75-10.14,1.32-15.23,1.79
	c-1.13,0.1-2.46-0.23-3.47-0.78c-3.79-2.07-7.48-4.32-11.41-6.63c-0.89,1.53-1.67,2.89-2.54,4.37c3.95,2.21,7.73,4.17,11.36,6.39
	c2.25,1.38,4.31,1.89,6.93,0.99c3.28-1.13,6.73-1.81,10.11-2.67c1.21-0.31,2.44-0.56,3.65-0.84c0.1,0.23,0.19,0.46,0.29,0.68
	c-0.83,0.58-1.58,1.33-2.49,1.7c-6.45,2.64-12.96,5.14-19.4,7.81c-1.45,0.6-2.55,0.51-3.86-0.29c-3.54-2.16-7.16-4.21-10.88-6.38
	c-0.9,1.56-1.67,2.88-2.55,4.38c4.55,2.57,9.02,5.03,13.41,7.61c1.25,0.73,2.21,0.63,3.41-0.03c4.68-2.58,9.41-5.07,14.12-7.58
	c1.53-0.82,3.07-1.62,4.6-2.43c0.1,0.16,0.19,0.33,0.29,0.49c-0.45,0.36-0.86,0.78-1.34,1.07c-8.33,4.93-16.65,9.88-25.04,14.72
	c-0.67,0.39-1.95,0.31-2.67-0.07c-3.68-1.96-7.26-4.1-11.05-6.27c-0.87,1.44-1.64,2.73-2.58,4.29c4.98,2.85,9.78,5.64,14.66,8.29
	c0.47,0.25,1.57-0.32,2.19-0.77c5.78-4.16,11.52-8.39,17.28-12.58c1.7-1.24,3.41-2.44,5.12-3.66c0.11,0.11,0.21,0.22,0.32,0.33
	c-1.13,2.05-2.26,4.11-3.61,6.54c2.76,0,5.09,0,7.42,0c-0.73,0.85-1.53,1.25-2.35,1.61c-7.59,3.34-15.18,6.65-22.75,10.04
	c-0.76,0.34-1.88,1.09-1.89,1.67c-0.15,5.46-0.09,10.94-0.09,16.55c1.76,0,3.27,0,5.04,0c0-4.03,0.09-7.96-0.04-11.88
	c-0.06-1.76,0.43-2.78,2.04-3.65c8.17-4.44,16.25-9.02,24.38-13.54c0.63-0.35,1.33-0.59,1.99-0.88c-0.38,0.87-0.98,1.32-1.62,1.71
	c-4.74,2.94-9.39,6.04-14.27,8.73c-2.84,1.57-4.1,3.37-3.82,6.72c0.34,4.2,0.08,8.45,0.08,12.77c0.75,0.07,1.28,0.15,1.81,0.16
	c3.13,0.08,3.13,0.08,3.11-3.14c-0.02-3.33-0.12-6.66-0.01-9.99c0.03-0.87,0.52-1.98,1.18-2.51c5.73-4.62,11.53-9.15,17.35-13.64
	c0.64-0.49,1.57-0.62,2.36-0.91c0.14,0.21,0.27,0.42,0.41,0.63c-1.77,1.79-3.35,3.83-5.34,5.34c-5.85,4.44-8.42,10.07-7.31,17.42
	c0.32,2.16,0.05,4.4,0.05,6.64c1.83,0,3.33,0,4.85,0c0-4.42-0.08-8.67,0.05-12.92c0.04-1.22,0.42-2.62,1.12-3.6
	c2.82-3.98,5.89-7.78,8.72-11.74c1.06-1.49,2.17-2.02,4.32-1.19c-4.91,9.25-6.26,19.12-5.13,29.45c1.5,0,3,0,4.73,0
	c0-3.96-0.29-7.78,0.07-11.53c0.54-5.67,1.48-11.31,2.38-16.94c0.09-0.54,1.04-1.25,1.65-1.31c0.62-0.06,1.8,0.49,1.9,0.95
	c0.96,4.61,2.09,9.22,2.49,13.89c0.42,4.9,0.09,9.87,0.09,14.97c1.78,0,3.28,0,4.76,0c0.97-10.36-0.26-20.25-5.17-29.5
	c2.07-0.66,3.15-0.38,4.14,1.01c2.65,3.72,5.37,7.4,8.24,10.95c1.41,1.74,1.95,3.51,1.86,5.72c-0.15,3.91-0.04,7.83-0.04,11.81
	c1.72,0,3.23,0,4.84,0c0-2.71-0.29-5.29,0.06-7.79c0.89-6.5-1.33-11.46-6.47-15.45c-2.28-1.77-4.11-4.1-6.15-6.18
	c0.14-0.21,0.27-0.43,0.41-0.64c0.84,0.35,1.82,0.53,2.51,1.07c5.76,4.45,11.51,8.92,17.17,13.5c0.7,0.57,1.18,1.78,1.22,2.72
	c0.14,3.01,0.02,6.04,0,9.06c-0.03,4.21-0.03,4.22,4.23,3.8c0.2-0.02,0.39-0.2,0.62-0.32c0-5.27,0.06-10.53-0.07-15.79
	c-0.02-0.7-0.83-1.59-1.51-2.02c-4.83-3.08-9.73-6.06-14.6-9.08c-1.22-0.76-2.42-1.56-3.63-2.35c0.74-0.21,1.33-0.09,1.83,0.19
	c8.46,4.71,16.93,9.4,25.33,14.22c0.73,0.42,1.38,1.62,1.41,2.49c0.15,4.15,0.07,8.31,0.07,12.5c1.81,0,3.36,0,5.01,0
	c0-5.27-0.06-10.3,0.03-15.32c0.03-1.47-0.48-2.22-1.81-2.79c-4.57-1.93-9.09-3.96-13.63-5.96c-3.93-1.73-7.86-3.47-11.79-5.21
	c0.04-0.18,0.08-0.36,0.11-0.54c2.33,0,4.67,0,7.44,0c-1.38-2.46-2.55-4.54-3.71-6.62c0.89,0.09,1.4,0.42,1.89,0.78
	c6.94,5.07,13.91,10.11,20.8,15.25c1.24,0.92,2.16,1.05,3.51,0.23c3.77-2.29,7.64-4.42,11.46-6.63c0.63-0.37,1.21-0.82,1.89-1.29
	c-0.89-1.49-1.64-2.73-2.48-4.14c-3.76,2.15-7.34,4.29-11.03,6.23c-0.76,0.4-2.13,0.44-2.86,0.03c-8.32-4.79-16.58-9.7-24.84-14.59
	c-0.51-0.3-0.94-0.74-1.41-1.11c0.12-0.16,0.25-0.31,0.37-0.47c4.49,2.4,9.26,4.39,13.39,7.3c5.03,3.54,9.34,3.4,14.1-0.27
	c2.39-1.85,5.27-3.08,8.02-4.65c-0.96-1.6-1.75-2.91-2.6-4.33c-3.83,2.23-7.48,4.42-11.21,6.46c-0.76,0.42-1.96,0.66-2.73,0.36
	c-6.94-2.66-13.84-5.44-20.73-8.25c-0.74-0.3-1.29-1.05-1.93-1.59c0.97-0.34,1.65-0.25,2.3-0.09c4.51,1.14,9,2.31,13.51,3.43
	c0.72,0.18,1.65,0.44,2.21,0.14c4.76-2.54,9.45-5.2,14.34-7.92c-0.97-1.6-1.78-2.94-2.62-4.34c-3.88,2.28-7.43,4.49-11.11,6.46
	c-1.2,0.64-2.77,1-4.12,0.88c-4.86-0.41-9.69-1.15-14.55-1.61c-1.83-0.17-2.51-1.08-2.87-3.13c10.57-0.38,19.81-4.13,28.25-10.32
	c-0.77-1.33-1.54-2.64-2.25-3.87c-0.39,0.06-0.56,0.04-0.69,0.11c-0.55,0.29-1.09,0.59-1.63,0.9c-7.22,4.22-14.4,8.49-22.64,10.59
	c-2.84,0.72-2.79,0.93-3.85-1.79c6.61-7.88,15.58-12.41,24.41-17.51c-0.92-1.53-1.73-2.88-2.39-3.99
	c-9.84,4.08-17.5,10.49-23.2,19.16c-1.71-1.51-1.76-2.78-1-4.42c1.79-3.86,3.58-7.73,5.02-11.73c0.91-2.54,2.48-4.08,4.79-5.27
	c3.34-1.72,6.57-3.68,9.94-5.59c-0.93-1.59-1.69-2.91-2.54-4.37c-4.73,2.82-9.27,5.47-13.72,8.26c-0.67,0.42-1.08,1.46-1.33,2.3
	c-1.22,4.16-2.34,8.34-3.5,12.51c-0.26,0.93-0.58,1.83-0.88,2.75c-0.23-0.02-0.46-0.04-0.69-0.06c-0.09-1-0.38-2.03-0.25-3.01
	c0.94-6.9,2-13.78,2.93-20.68c0.22-1.61,0.88-2.58,2.34-3.35c3.6-1.9,7.1-4.01,10.77-6.11c-0.89-1.57-1.64-2.89-2.49-4.39
	c-4.59,2.7-8.96,5.32-13.39,7.83c-1.17,0.66-1.58,1.42-1.61,2.75c-0.13,6.35-0.36,12.69-0.56,19.04c-0.03,0.78-0.12,1.57-0.18,2.35
	c-0.6-0.67-0.7-1.32-0.71-1.96c-0.13-9.21-0.2-18.43-0.42-27.64c-0.04-1.86,0.48-2.94,2.17-3.82c3.48-1.82,6.83-3.87,10.4-5.93
	c-0.93-1.59-1.72-2.94-2.55-4.38c-4.41,2.54-8.51,5.04-12.76,7.27c-1.97,1.03-2.45,2.16-2.17,4.36c1.13,8.96,2,17.96,2.97,26.94
	c-0.11,0.05-0.21,0.1-0.32,0.16c-1.29-2.18-2.57-4.36-3.98-6.74c-1.47,2.46-2.73,4.57-4,6.68c0.7-9.4,1.76-18.62,2.72-27.85
	c0.09-0.85-0.19-2.21-0.77-2.57c-4.62-2.82-9.35-5.45-14.23-8.25c-0.86,1.52-1.64,2.89-2.5,4.4c3.63,2.08,7,4.12,10.48,5.97
	c1.49,0.79,2.08,1.71,2.04,3.43c-0.2,9.29-0.26,18.58-0.38,27.87c-0.01,0.7-0.12,1.4-0.18,2.11c-0.19,0-0.39,0-0.58,0
	c-0.06-0.71-0.15-1.42-0.17-2.13c-0.12-4.1-0.2-8.2-0.35-12.31c-0.1-2.93,0.67-6.44-0.68-8.61c-1.41-2.28-4.89-3.3-7.48-4.84
	c-2.3-1.37-4.61-2.7-7.03-4.12c-0.92,1.61-1.67,2.92-2.51,4.39c3.88,2.21,7.54,4.2,11.09,6.39c0.84,0.52,1.7,1.62,1.85,2.57
	c1.17,7.17,2.2,14.37,3.19,21.57c0.11,0.82-0.27,1.71-0.42,2.57c-0.24-0.01-0.48-0.02-0.73-0.04c-1.34-4.82-2.66-9.66-4.05-14.47
	c-0.29-1-0.6-2.33-1.35-2.81c-4.48-2.87-9.1-5.54-13.88-8.39c-0.89,1.56-1.66,2.92-2.51,4.41c4.07,2.3,7.93,4.41,11.72,6.67
	c0.85,0.51,1.66,1.4,2.07,2.3c2.04,4.51,3.86,9.12,5.93,13.61c0.77,1.67,0.72,2.9-1.06,4.34c-5.66-8.75-13.44-15.01-23.15-19.17
	c-0.69,1.18-1.47,2.49-2.38,4.03c8.85,5.13,17.93,9.72,24.52,17.67c-1.4,2.37-1.41,2.4-3.03,1.89c-6.12-1.96-12.26-3.84-17.69-7.47
	c-2.54-1.7-5.32-3.04-8.11-4.61c-0.89,1.57-1.63,2.88-2.33,4.11C61,114.91,70.28,118.57,80.78,119.03z"/>
<linearGradient id="SVGID_00000044878490337459904130000013118898691080607929_" gradientUnits="userSpaceOnUse" x1="97.9947" y1="115.2835" x2="96.1373" y2="-25.5858">
	<stop  offset="0" style="stop-color:#2484C6"/>
	<stop  offset="0.4609" style="stop-color:#2484C6;stop-opacity:0"/>
</linearGradient>
<path style="fill:url(#SVGID_00000044878490337459904130000013118898691080607929_);" d="M80.78,119.03
	c-10.5-0.46-19.78-4.12-28.32-10.35c0.7-1.23,1.44-2.54,2.33-4.11c2.79,1.57,5.57,2.91,8.11,4.61c5.44,3.63,11.57,5.51,17.69,7.47
	c1.62,0.52,1.63,0.48,3.03-1.89c-6.59-7.96-15.67-12.55-24.52-17.67c0.91-1.55,1.68-2.86,2.38-4.03
	c9.71,4.15,17.49,10.42,23.15,19.17c1.78-1.44,1.83-2.67,1.06-4.34c-2.07-4.5-3.89-9.1-5.93-13.61c-0.41-0.9-1.22-1.79-2.07-2.3
	c-3.78-2.26-7.65-4.37-11.72-6.67c0.85-1.49,1.62-2.85,2.51-4.41c4.78,2.86,9.4,5.52,13.88,8.39c0.75,0.48,1.06,1.81,1.35,2.81
	c1.39,4.81,2.71,9.64,4.05,14.47c0.24,0.01,0.48,0.02,0.73,0.04c0.15-0.86,0.54-1.75,0.42-2.57c-0.99-7.2-2.02-14.4-3.19-21.57
	c-0.15-0.95-1.01-2.05-1.85-2.57c-3.55-2.19-7.21-4.18-11.09-6.39c0.84-1.47,1.59-2.78,2.51-4.39c2.42,1.42,4.74,2.75,7.03,4.12
	c2.59,1.54,6.07,2.56,7.48,4.84c1.35,2.18,0.58,5.69,0.68,8.61c0.14,4.1,0.22,8.2,0.35,12.31c0.02,0.71,0.11,1.42,0.17,2.13
	c0.19,0,0.39,0,0.58,0c0.06-0.7,0.17-1.4,0.18-2.11c0.12-9.29,0.19-18.58,0.38-27.87c0.04-1.72-0.55-2.64-2.04-3.43
	c-3.47-1.85-6.85-3.89-10.48-5.97c0.86-1.51,1.63-2.88,2.5-4.4c4.88,2.8,9.61,5.43,14.23,8.25c0.58,0.35,0.86,1.72,0.77,2.57
	c-0.96,9.23-2.02,18.45-2.72,27.85c1.26-2.11,2.53-4.23,4-6.68c1.41,2.39,2.69,4.56,3.98,6.74c0.11-0.05,0.21-0.1,0.32-0.16
	c-0.97-8.98-1.84-17.98-2.97-26.94c-0.28-2.21,0.2-3.33,2.17-4.36c4.25-2.22,8.35-4.73,12.76-7.27c0.84,1.44,1.63,2.79,2.55,4.38
	c-3.57,2.06-6.92,4.11-10.4,5.93c-1.69,0.88-2.21,1.96-2.17,3.82c0.21,9.21,0.28,18.42,0.42,27.64c0.01,0.65,0.11,1.29,0.71,1.96
	c0.06-0.78,0.16-1.57,0.18-2.35c0.2-6.35,0.43-12.69,0.56-19.04c0.03-1.32,0.44-2.09,1.61-2.75c4.43-2.51,8.8-5.13,13.39-7.83
	c0.85,1.51,1.6,2.82,2.49,4.39c-3.67,2.1-7.17,4.21-10.77,6.11c-1.47,0.77-2.13,1.74-2.34,3.35c-0.93,6.9-1.99,13.78-2.93,20.68
	c-0.13,0.97,0.16,2,0.25,3.01c0.23,0.02,0.46,0.04,0.69,0.06c0.29-0.92,0.62-1.82,0.88-2.75c1.17-4.17,2.28-8.36,3.5-12.51
	c0.25-0.84,0.66-1.88,1.33-2.3c4.45-2.79,8.99-5.43,13.72-8.26c0.85,1.46,1.61,2.78,2.54,4.37c-3.37,1.91-6.6,3.86-9.94,5.59
	c-2.31,1.19-3.87,2.73-4.79,5.27c-1.43,4-3.22,7.87-5.02,11.73c-0.76,1.63-0.71,2.91,1,4.42c5.71-8.67,13.36-15.07,23.2-19.16
	c0.67,1.11,1.47,2.45,2.39,3.99c-8.82,5.1-17.8,9.63-24.41,17.51c1.06,2.72,1.01,2.51,3.85,1.79c8.23-2.1,15.42-6.36,22.64-10.59
	c0.53-0.31,1.08-0.61,1.63-0.9c0.13-0.07,0.3-0.05,0.69-0.11c0.72,1.23,1.48,2.54,2.25,3.87c-8.44,6.19-17.68,9.94-28.25,10.32
	c0.36,2.05,1.04,2.96,2.87,3.13c4.86,0.45,9.69,1.2,14.55,1.61c1.35,0.11,2.92-0.24,4.12-0.88c3.68-1.97,7.24-4.18,11.11-6.46
	c0.85,1.4,1.66,2.74,2.62,4.34c-4.89,2.72-9.58,5.38-14.34,7.92c-0.56,0.3-1.49,0.04-2.21-0.14c-4.51-1.12-9.01-2.29-13.51-3.43
	c-0.66-0.17-1.33-0.26-2.3,0.09c0.64,0.54,1.19,1.29,1.93,1.59c6.88,2.81,13.78,5.59,20.73,8.25c0.76,0.29,1.96,0.05,2.73-0.36
	c3.73-2.04,7.38-4.23,11.21-6.46c0.85,1.42,1.64,2.72,2.6,4.33c-2.76,1.57-5.63,2.8-8.02,4.65c-4.75,3.67-9.06,3.81-14.1,0.27
	c-4.13-2.91-8.9-4.9-13.39-7.3c-0.12,0.16-0.25,0.31-0.37,0.47c0.47,0.37,0.9,0.81,1.41,1.11c8.26,4.89,16.52,9.8,24.84,14.59
	c0.73,0.42,2.09,0.38,2.86-0.03c3.69-1.94,7.27-4.08,11.03-6.23c0.84,1.4,1.59,2.65,2.48,4.14c-0.68,0.47-1.26,0.92-1.89,1.29
	c-3.82,2.21-7.69,4.34-11.46,6.63c-1.35,0.82-2.27,0.69-3.51-0.23c-6.9-5.13-13.86-10.18-20.8-15.25c-0.49-0.36-1-0.7-1.89-0.78
	c1.17,2.08,2.33,4.15,3.71,6.62c-2.78,0-5.11,0-7.44,0c-0.04,0.18-0.08,0.36-0.11,0.54c3.93,1.74,7.86,3.48,11.79,5.21
	c4.54,2,9.06,4.03,13.63,5.96c1.33,0.56,1.84,1.31,1.81,2.79c-0.09,5.03-0.03,10.06-0.03,15.32c-1.65,0-3.21,0-5.01,0
	c0-4.19,0.08-8.35-0.07-12.5c-0.03-0.86-0.68-2.07-1.41-2.49c-8.4-4.81-16.87-9.51-25.33-14.22c-0.5-0.28-1.08-0.4-1.83-0.19
	c1.21,0.78,2.4,1.59,3.63,2.35c4.87,3.02,9.77,6,14.6,9.08c0.68,0.43,1.5,1.32,1.51,2.02c0.13,5.25,0.07,10.51,0.07,15.79
	c-0.23,0.12-0.42,0.3-0.62,0.32c-4.26,0.42-4.26,0.41-4.23-3.8c0.02-3.02,0.14-6.04,0-9.06c-0.04-0.94-0.52-2.16-1.22-2.72
	c-5.66-4.58-11.4-9.05-17.17-13.5c-0.7-0.54-1.67-0.72-2.51-1.07c-0.14,0.21-0.27,0.43-0.41,0.64c2.04,2.08,3.87,4.41,6.15,6.18
	c5.14,3.99,7.36,8.96,6.47,15.45c-0.34,2.5-0.06,5.08-0.06,7.79c-1.61,0-3.12,0-4.84,0c0-3.98-0.11-7.9,0.04-11.81
	c0.09-2.21-0.45-3.98-1.86-5.72c-2.87-3.55-5.59-7.23-8.24-10.95c-0.99-1.39-2.07-1.67-4.14-1.01c4.91,9.26,6.14,19.14,5.17,29.5
	c-1.48,0-2.98,0-4.76,0c0-5.09,0.33-10.06-0.09-14.97c-0.4-4.67-1.53-9.29-2.49-13.89c-0.1-0.46-1.28-1-1.9-0.95
	c-0.6,0.06-1.56,0.77-1.65,1.31c-0.9,5.63-1.84,11.27-2.38,16.94c-0.35,3.75-0.07,7.57-0.07,11.53c-1.72,0-3.22,0-4.73,0
	c-1.13-10.32,0.22-20.19,5.13-29.45c-2.16-0.83-3.26-0.3-4.32,1.19c-2.83,3.97-5.9,7.77-8.72,11.74c-0.7,0.98-1.08,2.38-1.12,3.6
	c-0.13,4.24-0.05,8.49-0.05,12.92c-1.52,0-3.03,0-4.85,0c0-2.24,0.27-4.49-0.05-6.64c-1.1-7.35,1.46-12.98,7.31-17.42
	c1.99-1.51,3.57-3.54,5.34-5.34c-0.14-0.21-0.27-0.42-0.41-0.63c-0.8,0.3-1.72,0.42-2.36,0.91c-5.82,4.5-11.62,9.03-17.35,13.64
	c-0.66,0.53-1.15,1.65-1.18,2.51c-0.12,3.32-0.02,6.66,0.01,9.99c0.02,3.21,0.02,3.22-3.11,3.14c-0.53-0.01-1.05-0.09-1.81-0.16
	c0-4.32,0.26-8.57-0.08-12.77c-0.27-3.35,0.98-5.16,3.82-6.72c4.88-2.69,9.53-5.79,14.27-8.73c0.64-0.39,1.24-0.84,1.62-1.71
	c-0.66,0.29-1.36,0.53-1.99,0.88c-8.12,4.52-16.21,9.1-24.38,13.54c-1.61,0.88-2.1,1.9-2.04,3.65c0.13,3.92,0.04,7.85,0.04,11.88
	c-1.77,0-3.28,0-5.04,0c0-5.61-0.06-11.08,0.09-16.55c0.02-0.58,1.14-1.33,1.89-1.67c7.56-3.39,15.16-6.7,22.75-10.04
	c0.82-0.36,1.62-0.76,2.35-1.61c-2.33,0-4.66,0-7.42,0c1.34-2.44,2.48-4.49,3.61-6.54c-0.11-0.11-0.21-0.22-0.32-0.33
	c-1.71,1.22-3.42,2.42-5.12,3.66c-5.76,4.2-11.5,8.42-17.28,12.58c-0.62,0.45-1.73,1.02-2.19,0.77c-4.88-2.64-9.68-5.44-14.66-8.29
	c0.94-1.56,1.71-2.85,2.58-4.29c3.79,2.17,7.38,4.31,11.05,6.27c0.72,0.38,2,0.46,2.67,0.07c8.39-4.84,16.71-9.78,25.04-14.72
	c0.49-0.29,0.9-0.71,1.34-1.07c-0.1-0.16-0.19-0.33-0.29-0.49c-1.53,0.81-3.07,1.61-4.6,2.43c-4.71,2.52-9.44,5.01-14.12,7.58
	c-1.21,0.66-2.17,0.76-3.41,0.03c-4.4-2.58-8.86-5.04-13.41-7.61c0.87-1.5,1.64-2.83,2.55-4.38c3.71,2.17,7.33,4.21,10.88,6.38
	c1.31,0.8,2.41,0.89,3.86,0.29c6.44-2.67,12.94-5.18,19.4-7.81c0.91-0.37,1.66-1.13,2.49-1.7c-0.1-0.23-0.19-0.46-0.29-0.68
	c-1.22,0.28-2.44,0.53-3.65,0.84c-3.38,0.86-6.82,1.53-10.11,2.67c-2.62,0.9-4.68,0.39-6.93-0.99c-3.62-2.22-7.4-4.19-11.36-6.39
	c0.86-1.49,1.65-2.85,2.54-4.37c3.93,2.3,7.62,4.55,11.41,6.63c1.01,0.55,2.34,0.88,3.47,0.78c5.09-0.47,10.18-1.04,15.23-1.79
	c1.03-0.15,1.92-1.26,2.87-1.93C80.9,119.7,80.84,119.37,80.78,119.03z M125.2,139.97c-8.99-15.53-17.8-30.76-26.78-46.28
	c-8.99,15.55-17.82,30.81-26.77,46.28C89.7,139.97,107.24,139.97,125.2,139.97z"/>
<path d="M125.2,139.97c-17.96,0-35.5,0-53.56,0c8.95-15.47,17.78-30.73,26.77-46.28C107.39,109.21,116.21,124.44,125.2,139.97z
	 M113.83,122.59c-2.94,1.73-5.6,3.28-8.23,4.89c-0.48,0.29-1.11,0.87-1.12,1.32c-0.1,3.36-0.05,6.73-0.05,10.23
	c2.01,0,3.8,0.03,5.58-0.04c0.22-0.01,0.41-0.54,0.62-0.82c0.73-0.97,1.47-1.94,2.21-2.91c0.2,0.14,0.41,0.28,0.61,0.42
	c0.04,0.45,0,0.93,0.14,1.34c0.23,0.68,0.57,1.33,0.87,1.99c0.25-0.64,0.79-1.31,0.71-1.91c-0.27-2.17,0.55-3.54,2.57-4.28
	c0.28-0.1,0.61-0.26,0.76-0.5c0.21-0.32,0.26-0.74,0.38-1.12c-0.4-0.06-0.86-0.28-1.19-0.15c-0.74,0.28-1.42,0.74-2.12,1.12
	c-0.22-0.15-0.43-0.29-0.65-0.44c0.48-1.39,0.96-2.78,1.48-4.27C115.69,126.12,114.82,124.48,113.83,122.59z M107.96,112.41
	c-1.19-1.8-2.26-3.43-2.99-4.53c-1.74-0.37-3.15-0.67-4.94-1.05c2.9-2.61,2.9-2.61,2.29-4.04c-2.55,3.21-5.3,2.42-7.96,0.21
	c-0.44,1.15-0.44,1.15,2.46,3.91c-1.94,0.32-3.44,0.56-4.81,0.79c-0.95,1.43-1.99,2.99-3.14,4.72c3.04,1.7,5.92,3.34,8.83,4.9
	c0.38,0.2,1.07,0.18,1.46-0.03C102.08,115.74,104.95,114.1,107.96,112.41z M84.45,120.41c3.01,1.67,5.88,3.35,8.84,4.86
	c1.5,0.76,2.16,1.68,2.04,3.42c-0.21,2.93-0.15,5.88-0.25,8.82c-0.06,1.64,0.72,1.78,1.85,1.38c0-4.19,0.05-8.2-0.05-12.21
	c-0.02-0.61-0.6-1.41-1.15-1.76c-3.01-1.91-6.11-3.66-9.12-5.56C85.41,118.61,84.8,118.8,84.45,120.41z M112.38,120.41
	c-0.31-1.57-0.91-1.82-2.12-1.07c-3.02,1.87-6.14,3.6-9.13,5.51c-0.58,0.37-1.08,1.3-1.12,2c-0.2,3.47-0.29,6.95-0.3,10.43
	c0,0.59,0.55,1.18,0.85,1.77c0.39-0.59,1.09-1.17,1.11-1.77c0.06-3.01-0.18-6.03-0.04-9.04c0.05-0.93,0.77-2.16,1.56-2.65
	C106.12,123.76,109.21,122.17,112.38,120.41z M86.73,116.56c3.85,2.08,7.71,4.17,11.58,6.25c3.54-1.89,7.07-3.8,10.63-5.64
	c1.44-0.74,1.38-1.43,0.11-2.33c-3.08,1.83-6.17,3.59-9.18,5.49c-1.08,0.68-1.85,0.69-2.92,0c-2.67-1.71-5.46-3.24-8.16-4.9
	C87.57,114.67,86.99,114.99,86.73,116.56z"/>
<path class="st5" d="M113.83,122.59c0.99,1.89,1.86,3.53,2.56,4.87c-0.52,1.49-1,2.88-1.48,4.27c0.22,0.15,0.43,0.29,0.65,0.44
	c0.7-0.38,1.38-0.84,2.12-1.12c0.33-0.13,0.79,0.09,1.19,0.15c-0.12,0.38-0.18,0.8-0.38,1.12c-0.15,0.24-0.48,0.4-0.76,0.5
	c-2.01,0.74-2.84,2.11-2.57,4.28c0.08,0.6-0.46,1.27-0.71,1.91c-0.29-0.66-0.64-1.3-0.87-1.99c-0.14-0.42-0.1-0.89-0.14-1.34
	c-0.2-0.14-0.41-0.28-0.61-0.42c-0.74,0.97-1.47,1.94-2.21,2.91c-0.21,0.28-0.4,0.81-0.62,0.82c-1.78,0.07-3.57,0.04-5.58,0.04
	c0-3.5-0.04-6.87,0.05-10.23c0.01-0.46,0.64-1.03,1.12-1.32C108.22,125.87,110.89,124.32,113.83,122.59z M113.38,130.31
	c-3.18,1.19-3.42,1.65-2.42,4.39C113.25,134.15,114.05,132.73,113.38,130.31z M113.36,125.34c-2.98,0.97-3.27,1.45-2.46,4.1
	C113.1,128.89,114.13,127.68,113.36,125.34z M106.29,137.28c2.84-1,3.05-1.42,2.23-4.28C106.18,133.5,105.72,135.03,106.29,137.28z
	 M106.27,132.04c2.49-0.5,3.1-1.93,2.44-4.14C106.38,128.38,105.6,129.71,106.27,132.04z"/>
<path class="st5" d="M83.38,135.97c-0.06,0.98-0.08,2.34-0.14,3.32c0,0.03-1.08,0-1.08,0s-0.31-1.76-0.64-2.6
	c-0.64-1.63-1.93-2.88-3.24-3.99c-0.02-0.02-0.02-1.46-0.27-1.51c0.67,0.12,1.35,0.2,2,0.37c0.43,0.11,0.81,0.37,1.22,0.56
	c0.22-0.11,0.45-0.22,0.67-0.32c-0.48-1.42-0.96-2.84-1.46-4.3c0.72-1.39,1.57-3.04,2.53-4.9c2.89,1.69,5.69,3.27,8.42,4.98
	c0.48,0.3,0.92,1.09,0.94,1.66c0.09,3.15,0.04,6.31,0.04,9.89c-1.06-0.14-2.06-0.34-3.06-0.38c-0.88-0.04-1.78,0.1-2.21,0.13
	c-1.15-1.31-2.14-2.43-3.13-3.56C83.76,135.53,83.57,135.75,83.38,135.97z M83.48,130.37c-0.68,2.3,0.02,3.8,2.48,4.32
	C86.78,131.77,86.54,131.36,83.48,130.37z M86.01,129.51c0.65-2.91,0.33-3.38-2.54-4.09C82.75,127.65,83.78,128.86,86.01,129.51z
	 M90.47,137.27c0.67-2.28,0.18-3.81-2.37-4.3C87.55,135.17,87.85,136.8,90.47,137.27z M88.13,127.89c-0.51,3.07-0.3,3.39,2.44,3.96
	C91.22,129.76,90.53,128.43,88.13,127.89z"/>
<path class="st5" d="M107.96,112.41c-3.01,1.69-5.88,3.32-8.79,4.89c-0.39,0.21-1.08,0.23-1.46,0.03c-2.92-1.56-5.79-3.2-8.83-4.9
	c1.15-1.73,2.19-3.28,3.14-4.72c1.37-0.23,2.87-0.47,4.81-0.79c-2.9-2.76-2.9-2.76-2.46-3.91c2.66,2.2,5.4,3,7.96-0.21
	c0.6,1.43,0.6,1.43-2.29,4.04c1.8,0.38,3.2,0.68,4.94,1.05C105.7,108.98,106.77,110.61,107.96,112.41z M95.86,108.93
	c2.65,2.19,3.1,2.16,4.94-0.13C99.2,106.98,97.58,107.13,95.86,108.93z M96.37,111.58c-1.74-1.72-3.31-1.98-4.87-0.03
	C93.96,113.56,94.14,113.56,96.37,111.58z M95.97,114.18c2.61,2.01,2.81,2,4.72-0.17C99.14,112.31,97.61,112.41,95.97,114.18z
	 M105.32,111.61c-2.15-2.05-2.56-2.04-4.8,0.11C102.18,113.6,103.75,113.23,105.32,111.61z"/>
<path class="st5" d="M84.45,120.41c0.35-1.61,0.96-1.8,2.16-1.05c3.01,1.89,6.12,3.65,9.12,5.56c0.55,0.35,1.13,1.15,1.15,1.76
	c0.1,4.01,0.05,8.02,0.05,12.21c-1.13,0.39-1.91,0.26-1.85-1.38c0.1-2.94,0.04-5.89,0.25-8.82c0.12-1.74-0.54-2.66-2.04-3.42
	C90.33,123.76,87.46,122.08,84.45,120.41z"/>
<path class="st5" d="M112.38,120.41c-3.16,1.75-6.26,3.34-9.2,5.18c-0.79,0.49-1.51,1.73-1.56,2.65c-0.15,3,0.1,6.02,0.04,9.04
	c-0.01,0.6-0.72,1.18-1.11,1.77c-0.3-0.59-0.85-1.18-0.85-1.77c0.01-3.48,0.09-6.96,0.3-10.43c0.04-0.7,0.54-1.63,1.12-2
	c3-1.91,6.11-3.64,9.13-5.51C111.46,118.59,112.06,118.84,112.38,120.41z"/>
<path class="st5" d="M86.73,116.56c0.26-1.57,0.84-1.89,2.06-1.14c2.7,1.66,5.49,3.19,8.16,4.9c1.08,0.69,1.85,0.68,2.92,0
	c3.01-1.9,6.1-3.66,9.18-5.49c1.26,0.9,1.33,1.59-0.11,2.33c-3.56,1.84-7.09,3.76-10.63,5.64
	C94.45,120.72,90.58,118.63,86.73,116.56z"/>
<path d="M113.38,130.31c0.67,2.42-0.13,3.85-2.42,4.39C109.96,131.95,110.2,131.5,113.38,130.31z"/>
<path d="M113.36,125.34c0.77,2.33-0.26,3.55-2.46,4.1C110.09,126.79,110.38,126.31,113.36,125.34z"/>
<path d="M106.29,137.28c-0.57-2.25-0.11-3.78,2.23-4.28C109.34,135.86,109.13,136.28,106.29,137.28z"/>
<path d="M106.27,132.04c-0.67-2.33,0.11-3.66,2.44-4.14C109.38,130.11,108.77,131.53,106.27,132.04z"/>
<path d="M83.48,130.37c3.06,0.99,3.3,1.4,2.47,4.32C83.5,134.18,82.8,132.67,83.48,130.37z"/>
<path d="M86.01,129.51c-2.23-0.65-3.26-1.86-2.54-4.09C86.34,126.13,86.66,126.6,86.01,129.51z"/>
<path d="M90.47,137.27c-2.62-0.46-2.92-2.1-2.37-4.3C90.64,133.46,91.13,134.99,90.47,137.27z"/>
<path d="M88.13,127.89c2.4,0.54,3.08,1.87,2.44,3.96C87.83,131.28,87.63,130.96,88.13,127.89z"/>
<path d="M95.86,108.93c1.72-1.8,3.34-1.96,4.94-0.13C98.96,111.1,98.51,111.12,95.86,108.93z"/>
<path d="M96.37,111.58c-2.22,1.98-2.4,1.98-4.87-0.03C93.05,109.61,94.62,109.86,96.37,111.58z"/>
<path d="M95.97,114.18c1.64-1.77,3.16-1.88,4.72-0.17C98.78,116.18,98.58,116.2,95.97,114.18z"/>
<path d="M105.32,111.61c-1.57,1.62-3.14,1.99-4.8,0.11C102.76,109.57,103.17,109.57,105.32,111.61z"/>
</svg>
